<svg xmlns="http://www.w3.org/2000/svg" viewBox="0 0 1024 768" width="1024" height="768" role="img"><rect width="1024" height="768" fill="#f5e3a1"/><rect x="-20" y="73" width="1064" height="34" rx="0" fill="#faf4e8" transform="rotate(0 512 90)" opacity="0.35"/><rect x="-20" y="673" width="1064" height="34" rx="0" fill="#faf4e8" transform="rotate(0 512 690)" opacity="0.35"/><ellipse cx="522" cy="398" rx="440" ry="290" fill="#3d2b20" transform="rotate(0 522 398)" opacity="0.10"/><rect x="72" y="84" width="880" height="600" rx="46" fill="#a9794a" transform="rotate(0 512 384)"/><rect x="84" y="96" width="856" height="576" rx="38" fill="#c79a64" transform="rotate(0 512 384)"/><path d="M260 134 L240 634" fill="none" stroke="#a9794a" stroke-width="3" stroke-linecap="round" stroke-linejoin="round" opacity="0.35"/><path d="M390 134 L374 634" fill="none" stroke="#a9794a" stroke-width="3" stroke-linecap="round" stroke-linejoin="round" opacity="0.35"/><path d="M530 134 L518 634" fill="none" stroke="#a9794a" stroke-width="3" stroke-linecap="round" stroke-linejoin="round" opacity="0.35"/><path d="M620 134 L612 634" fill="none" stroke="#a9794a" stroke-width="3" stroke-linecap="round" stroke-linejoin="round" opacity="0.35"/><path d="M750 134 L746 634" fill="none" stroke="#a9794a" stroke-width="3" stroke-linecap="round" stroke-linejoin="round" opacity="0.35"/><rect x="112" y="104" width="800" height="560" rx="44" fill="#9aa6ad" transform="rotate(0 512 384)"/><rect x="126" y="118" width="772" height="532" rx="34" fill="#b7c1c6" transform="rotate(0 512 384)"/><circle cx="272" cy="259" r="104" fill="#8c989f"/><circle cx="272" cy="259" r="94" fill="#d5dde0"/><circle cx="272" cy="259" r="82" fill="#f4cf5c"/><circle cx="272" cy="259" r="82" fill="none" stroke="#ffffff" stroke-width="5" opacity="0.25"/><rect x="256.1" y="275.3" width="7.2" height="5" rx="1.1" fill="#f4c95a" transform="rotate(71.9 259.7 277.8)"/><rect x="295.3" y="209.9" width="7.2" height="5" rx="1.1" fill="#f4c95a" transform="rotate(18.3 298.9 212.4)"/><rect x="330.4" y="277.8" width="7.2" height="5" rx="1.1" fill="#f4c95a" transform="rotate(68.4 334 280.3)"/><rect x="205" y="260.5" width="7.2" height="5" rx="1.1" fill="#f4c95a" transform="rotate(144.1 208.6 262.9)"/><rect x="271.4" y="236.1" width="7.2" height="5" rx="1.1" fill="#f4c95a" transform="rotate(112.4 275 238.6)"/><g transform="translate(246.1 201.8) rotate(168.9)"><path d="M0 -11 C 8.8 -4.4 8.8 6.6 0 11 C -8.8 6.6 -8.8 -4.4 0 -11 Z" fill="#4c7a37"/><path d="M0 -7.7 L0 8.8" stroke="#6f9a4b" stroke-width="2" stroke-linecap="round"/></g><g transform="rotate(145.6 246.9 312.5)"><path d="M232.6 312.5 Q246.9 300.4 261.2 312.5" fill="none" stroke="#e98a3a" stroke-width="7.2" stroke-linecap="round" stroke-linejoin="round"/></g><g transform="rotate(24 326.1 230.3)"><path d="M311.8 230.3 Q326.1 218.2 340.4 230.3" fill="none" stroke="#d4452b" stroke-width="7.2" stroke-linecap="round" stroke-linejoin="round"/></g><rect x="213.5" y="285.4" width="7.2" height="5" rx="1.1" fill="#f4c95a" transform="rotate(106.4 217.1 287.9)"/><circle cx="512" cy="259" r="104" fill="#8c989f"/><circle cx="512" cy="259" r="94" fill="#d5dde0"/><circle cx="512" cy="259" r="82" fill="#f2c450"/><circle cx="512" cy="259" r="82" fill="none" stroke="#ffffff" stroke-width="5" opacity="0.25"/><rect x="458.5" y="292" width="7.2" height="5" rx="1.1" fill="#f4c95a" transform="rotate(91.4 462 294.5)"/><g transform="rotate(129.4 541 241.8)"><path d="M526.7 241.8 Q541 229.7 555.3 241.8" fill="none" stroke="#f2b73a" stroke-width="7.2" stroke-linecap="round" stroke-linejoin="round"/></g><g transform="rotate(131.4 507.2 241.5)"><path d="M492.9 241.5 Q507.2 229.4 521.5 241.5" fill="none" stroke="#e98a3a" stroke-width="7.2" stroke-linecap="round" stroke-linejoin="round"/></g><g transform="translate(504.5 279.6) rotate(104)"><path d="M0 -11 C 8.8 -4.4 8.8 6.6 0 11 C -8.8 6.6 -8.8 -4.4 0 -11 Z" fill="#4c7a37"/><path d="M0 -7.7 L0 8.8" stroke="#6f9a4b" stroke-width="2" stroke-linecap="round"/></g><rect x="458.8" y="267.2" width="7.2" height="5" rx="1.1" fill="#f4c95a" transform="rotate(59.7 462.3 269.7)"/><rect x="526.8" y="278.1" width="7.2" height="5" rx="1.1" fill="#f4c95a" transform="rotate(47.6 530.4 280.6)"/><rect x="529.7" y="311.1" width="7.2" height="5" rx="1.1" fill="#f4c95a" transform="rotate(143.7 533.3 313.6)"/><g transform="translate(566.9 288.9) rotate(83.8)"><path d="M0 -11 C 8.8 -4.4 8.8 6.6 0 11 C -8.8 6.6 -8.8 -4.4 0 -11 Z" fill="#4c7a37"/><path d="M0 -7.7 L0 8.8" stroke="#6f9a4b" stroke-width="2" stroke-linecap="round"/></g><rect x="524.9" y="216" width="7.2" height="5" rx="1.1" fill="#f4c95a" transform="rotate(96.6 528.5 218.5)"/><circle cx="752" cy="259" r="104" fill="#8c989f"/><circle cx="752" cy="259" r="94" fill="#d5dde0"/><circle cx="752" cy="259" r="82" fill="#f7d873"/><circle cx="752" cy="259" r="82" fill="none" stroke="#ffffff" stroke-width="5" opacity="0.25"/><g transform="translate(722.5 275.7) rotate(239.3)"><path d="M0 -11 C 8.8 -4.4 8.8 6.6 0 11 C -8.8 6.6 -8.8 -4.4 0 -11 Z" fill="#4c7a37"/><path d="M0 -7.7 L0 8.8" stroke="#6f9a4b" stroke-width="2" stroke-linecap="round"/></g><g transform="rotate(164.3 703.2 236.9)"><path d="M688.9 236.9 Q703.2 224.8 717.5 236.9" fill="none" stroke="#6f9a4b" stroke-width="7.2" stroke-linecap="round" stroke-linejoin="round"/></g><rect x="746" y="266.1" width="7.2" height="5" rx="1.1" fill="#f4c95a" transform="rotate(65.6 749.6 268.6)"/><g transform="rotate(125.2 790.5 241.8)"><path d="M776.2 241.8 Q790.5 229.7 804.8 241.8" fill="none" stroke="#d4452b" stroke-width="7.2" stroke-linecap="round" stroke-linejoin="round"/></g><rect x="764.7" y="228" width="7.2" height="5" rx="1.1" fill="#f4c95a" transform="rotate(155 768.2 230.5)"/><g transform="translate(736.9 212.7) rotate(92.5)"><path d="M0 -11 C 8.8 -4.4 8.8 6.6 0 11 C -8.8 6.6 -8.8 -4.4 0 -11 Z" fill="#4c7a37"/><path d="M0 -7.7 L0 8.8" stroke="#6f9a4b" stroke-width="2" stroke-linecap="round"/></g><rect x="748.9" y="191.3" width="7.2" height="5" rx="1.1" fill="#f4c95a" transform="rotate(116.9 752.4 193.7)"/><rect x="734" y="301.8" width="7.2" height="5" rx="1.1" fill="#f4c95a" transform="rotate(11.2 737.6 304.2)"/><rect x="783.8" y="212.5" width="7.2" height="5" rx="1.1" fill="#f4c95a" transform="rotate(105.7 787.4 215)"/><circle cx="272" cy="509" r="104" fill="#8c989f"/><circle cx="272" cy="509" r="94" fill="#d5dde0"/><circle cx="272" cy="509" r="82" fill="#f4cf5c"/><circle cx="272" cy="509" r="82" fill="none" stroke="#ffffff" stroke-width="5" opacity="0.25"/><g transform="translate(328.8 523.7) rotate(290.1)"><path d="M0 -11 C 8.8 -4.4 8.8 6.6 0 11 C -8.8 6.6 -8.8 -4.4 0 -11 Z" fill="#4c7a37"/><path d="M0 -7.7 L0 8.8" stroke="#6f9a4b" stroke-width="2" stroke-linecap="round"/></g><g transform="rotate(143.7 226.4 476.9)"><path d="M212.1 476.9 Q226.4 464.8 240.7 476.9" fill="none" stroke="#6f9a4b" stroke-width="7.2" stroke-linecap="round" stroke-linejoin="round"/></g><rect x="288.8" y="494.8" width="7.2" height="5" rx="1.1" fill="#f4c95a" transform="rotate(161.7 292.3 497.3)"/><rect x="230.8" y="511.7" width="7.2" height="5" rx="1.1" fill="#f4c95a" transform="rotate(7.2 234.4 514.2)"/><rect x="280.6" y="544.5" width="7.2" height="5" rx="1.1" fill="#f4c95a" transform="rotate(130.2 284.2 547)"/><g transform="rotate(20.2 270.7 455.4)"><path d="M256.4 455.4 Q270.7 443.3 285 455.4" fill="none" stroke="#d4452b" stroke-width="7.2" stroke-linecap="round" stroke-linejoin="round"/></g><rect x="251.8" y="476.7" width="7.2" height="5" rx="1.1" fill="#f4c95a" transform="rotate(83.8 255.3 479.2)"/><g transform="rotate(154.8 241.9 558.8)"><path d="M227.6 558.8 Q241.9 546.7 256.2 558.8" fill="none" stroke="#f2b73a" stroke-width="7.2" stroke-linecap="round" stroke-linejoin="round"/></g><rect x="251.9" y="529.2" width="7.2" height="5" rx="1.1" fill="#f4c95a" transform="rotate(169.8 255.5 531.7)"/><circle cx="512" cy="509" r="104" fill="#8c989f"/><circle cx="512" cy="509" r="94" fill="#d5dde0"/><circle cx="512" cy="509" r="82" fill="#f2c450"/><circle cx="512" cy="509" r="82" fill="none" stroke="#ffffff" stroke-width="5" opacity="0.25"/><rect x="527.8" y="562" width="7.2" height="5" rx="1.1" fill="#f4c95a" transform="rotate(42.5 531.4 564.4)"/><g transform="translate(526.1 507.5) rotate(233.2)"><path d="M0 -11 C 8.8 -4.4 8.8 6.6 0 11 C -8.8 6.6 -8.8 -4.4 0 -11 Z" fill="#4c7a37"/><path d="M0 -7.7 L0 8.8" stroke="#6f9a4b" stroke-width="2" stroke-linecap="round"/></g><g transform="translate(490 514.2) rotate(27.5)"><path d="M0 -11 C 8.8 -4.4 8.8 6.6 0 11 C -8.8 6.6 -8.8 -4.4 0 -11 Z" fill="#4c7a37"/><path d="M0 -7.7 L0 8.8" stroke="#6f9a4b" stroke-width="2" stroke-linecap="round"/></g><rect x="479.2" y="552.3" width="7.2" height="5" rx="1.1" fill="#f4c95a" transform="rotate(158.5 482.8 554.7)"/><rect x="546.5" y="500.5" width="7.2" height="5" rx="1.1" fill="#f4c95a" transform="rotate(172.2 550.1 503)"/><rect x="497.8" y="535" width="7.2" height="5" rx="1.1" fill="#f4c95a" transform="rotate(78.1 501.4 537.5)"/><rect x="530.8" y="460.4" width="7.2" height="5" rx="1.1" fill="#f4c95a" transform="rotate(119.2 534.4 462.9)"/><rect x="469.2" y="473.5" width="7.2" height="5" rx="1.1" fill="#f4c95a" transform="rotate(18.1 472.8 476)"/><rect x="557.2" y="547.3" width="7.2" height="5" rx="1.1" fill="#f4c95a" transform="rotate(59.8 560.8 549.7)"/><circle cx="752" cy="509" r="104" fill="#8c989f"/><circle cx="752" cy="509" r="94" fill="#d5dde0"/><circle cx="752" cy="509" r="82" fill="#f7d873"/><circle cx="752" cy="509" r="82" fill="none" stroke="#ffffff" stroke-width="5" opacity="0.25"/><g transform="translate(707.3 487.1) rotate(84.8)"><path d="M0 -11 C 8.8 -4.4 8.8 6.6 0 11 C -8.8 6.6 -8.8 -4.4 0 -11 Z" fill="#4c7a37"/><path d="M0 -7.7 L0 8.8" stroke="#6f9a4b" stroke-width="2" stroke-linecap="round"/></g><g transform="translate(785.3 553.5) rotate(232.3)"><path d="M0 -11 C 8.8 -4.4 8.8 6.6 0 11 C -8.8 6.6 -8.8 -4.4 0 -11 Z" fill="#4c7a37"/><path d="M0 -7.7 L0 8.8" stroke="#6f9a4b" stroke-width="2" stroke-linecap="round"/></g><g transform="rotate(54.8 727.1 552.3)"><path d="M712.8 552.3 Q727.1 540.2 741.4 552.3" fill="none" stroke="#e98a3a" stroke-width="7.2" stroke-linecap="round" stroke-linejoin="round"/></g><rect x="752.1" y="480.4" width="7.2" height="5" rx="1.1" fill="#f4c95a" transform="rotate(31.4 755.7 482.9)"/><g transform="translate(701.8 513) rotate(78.1)"><path d="M0 -11 C 8.8 -4.4 8.8 6.6 0 11 C -8.8 6.6 -8.8 -4.4 0 -11 Z" fill="#4c7a37"/><path d="M0 -7.7 L0 8.8" stroke="#6f9a4b" stroke-width="2" stroke-linecap="round"/></g><rect x="740.6" y="457" width="7.2" height="5" rx="1.1" fill="#f4c95a" transform="rotate(71.9 744.2 459.5)"/><rect x="750.5" y="557.2" width="7.2" height="5" rx="1.1" fill="#f4c95a" transform="rotate(103.4 754.1 559.7)"/><rect x="773.3" y="519.3" width="7.2" height="5" rx="1.1" fill="#f4c95a" transform="rotate(110.6 776.9 521.8)"/><g transform="translate(814.8 514.3) rotate(74.7)"><path d="M0 -11 C 8.8 -4.4 8.8 6.6 0 11 C -8.8 6.6 -8.8 -4.4 0 -11 Z" fill="#4c7a37"/><path d="M0 -7.7 L0 8.8" stroke="#6f9a4b" stroke-width="2" stroke-linecap="round"/></g></svg>
