<svg xmlns="http://www.w3.org/2000/svg" viewBox="0 0 1024 768" width="1024" height="768" role="img"><rect width="1024" height="768" fill="#f1e6d0"/><rect x="-20" y="73" width="1064" height="34" rx="0" fill="#faf4e8" transform="rotate(0 512 90)" opacity="0.35"/><rect x="-20" y="673" width="1064" height="34" rx="0" fill="#faf4e8" transform="rotate(0 512 690)" opacity="0.35"/><ellipse cx="522" cy="398" rx="318" ry="304" fill="#3d2b20" transform="rotate(0 522 398)" opacity="0.10"/><circle cx="512" cy="384" r="300" fill="#fbf8f1"/><circle cx="512" cy="384" r="300" fill="none" stroke="#e7dfcf" stroke-width="4"/><circle cx="512" cy="384" r="238" fill="#fdfbf6"/><circle cx="512" cy="384" r="238" fill="none" stroke="#e7dfcf" stroke-width="3"/><rect x="399.3" y="359.9" width="151.5" height="90.9" rx="38.9" fill="#d9a066" transform="rotate(146.4 475 405.3)"/><rect x="414.4" y="375" width="121.2" height="60.6" rx="26" fill="#e7b982" transform="rotate(146.4 475 405.3)"/><g transform="rotate(146.4 475 405.3)"><path d="M444.7 375 L444.7 435.6" fill="none" stroke="#b9803f" stroke-width="7.6" stroke-linecap="round" stroke-linejoin="round"/><path d="M475 375 L475 435.6" fill="none" stroke="#b9803f" stroke-width="7.6" stroke-linecap="round" stroke-linejoin="round"/><path d="M505.3 375 L505.3 435.6" fill="none" stroke="#b9803f" stroke-width="7.6" stroke-linecap="round" stroke-linejoin="round"/></g><rect x="457.1" y="259.4" width="135.8" height="81.5" rx="34.9" fill="#d9a066" transform="rotate(160.5 525 300.2)"/><rect x="470.7" y="273" width="108.6" height="54.3" rx="23.3" fill="#e7b982" transform="rotate(160.5 525 300.2)"/><g transform="rotate(160.5 525 300.2)"><path d="M497.9 273 L497.9 327.3" fill="none" stroke="#b9803f" stroke-width="6.8" stroke-linecap="round" stroke-linejoin="round"/><path d="M525 273 L525 327.3" fill="none" stroke="#b9803f" stroke-width="6.8" stroke-linecap="round" stroke-linejoin="round"/><path d="M552.2 273 L552.2 327.3" fill="none" stroke="#b9803f" stroke-width="6.8" stroke-linecap="round" stroke-linejoin="round"/></g><g transform="rotate(119.8 554.3 460.9)"><path d="M507.6 460.9 Q554.3 447.2 601 463.7" fill="none" stroke="#6f9a4b" stroke-width="12.4" stroke-linecap="round" stroke-linejoin="round"/></g><g transform="rotate(89.3 568.5 514.9)"><path d="M521.9 514.9 Q568.5 501.2 615 517.6" fill="none" stroke="#6f9a4b" stroke-width="12.3" stroke-linecap="round" stroke-linejoin="round"/></g><g transform="rotate(3.4 517.1 570.9)"><path d="M473.7 570.9 Q517.1 558.2 560.4 573.5" fill="none" stroke="#6f9a4b" stroke-width="11.5" stroke-linecap="round" stroke-linejoin="round"/></g><g transform="rotate(69.4 628.3 566.7)"><path d="M580.2 566.7 Q628.3 552.5 676.5 569.5" fill="none" stroke="#6f9a4b" stroke-width="12.7" stroke-linecap="round" stroke-linejoin="round"/></g><g transform="rotate(66.9 477.4 495.1)"><path d="M433.7 495.1 Q477.4 482.3 521.2 497.7" fill="none" stroke="#6f9a4b" stroke-width="11.6" stroke-linecap="round" stroke-linejoin="round"/></g><g transform="rotate(43.8 518.3 395.1)"><path d="M471.2 395.1 Q518.3 381.3 565.5 397.9" fill="none" stroke="#6f9a4b" stroke-width="12.5" stroke-linecap="round" stroke-linejoin="round"/></g><g transform="rotate(137.8 611 440.9)"><path d="M561.7 440.9 Q611 426.4 660.3 443.8" fill="none" stroke="#6f9a4b" stroke-width="13.1" stroke-linecap="round" stroke-linejoin="round"/></g><g transform="rotate(57.6 586.3 368.2)"><path d="M535.9 368.2 Q586.3 353.4 636.7 371.1" fill="none" stroke="#6f9a4b" stroke-width="13.3" stroke-linecap="round" stroke-linejoin="round"/></g><g transform="rotate(79.7 568.4 573.7)"><path d="M516.9 573.7 Q568.4 558.5 619.9 576.7" fill="none" stroke="#6f9a4b" stroke-width="13.6" stroke-linecap="round" stroke-linejoin="round"/></g><g transform="rotate(161.4 637.5 485)"><path d="M590 485 Q637.5 471 684.9 487.8" fill="none" stroke="#6f9a4b" stroke-width="12.6" stroke-linecap="round" stroke-linejoin="round"/></g><g transform="rotate(163.3 494.3 448.1)"><path d="M444.6 448.1 Q494.3 433.5 544 451" fill="none" stroke="#6f9a4b" stroke-width="13.2" stroke-linecap="round" stroke-linejoin="round"/></g><g transform="rotate(163 451.6 414.5)"><path d="M403.5 414.5 Q451.6 400.3 499.7 417.3" fill="none" stroke="#6f9a4b" stroke-width="12.7" stroke-linecap="round" stroke-linejoin="round"/></g><g transform="translate(412 498.8) rotate(191.4)"><path d="M0 -14.5 C 11.6 -5.8 11.6 8.7 0 14.5 C -11.6 8.7 -11.6 -5.8 0 -14.5 Z" fill="#4c7a37"/><path d="M0 -10.1 L0 11.6" stroke="#a5c46c" stroke-width="2" stroke-linecap="round"/></g><g transform="translate(545.6 416.4) rotate(247.7)"><path d="M0 -16.2 C 12.9 -6.5 12.9 9.7 0 16.2 C -12.9 9.7 -12.9 -6.5 0 -16.2 Z" fill="#4c7a37"/><path d="M0 -11.3 L0 12.9" stroke="#a5c46c" stroke-width="2" stroke-linecap="round"/></g><g transform="translate(645.2 354.9) rotate(192.6)"><path d="M0 -13 C 10.4 -5.2 10.4 7.8 0 13 C -10.4 7.8 -10.4 -5.2 0 -13 Z" fill="#4c7a37"/><path d="M0 -9.1 L0 10.4" stroke="#a5c46c" stroke-width="2" stroke-linecap="round"/></g><g transform="translate(421 341) rotate(306.4)"><path d="M0 -12.4 C 9.9 -5 9.9 7.4 0 12.4 C -9.9 7.4 -9.9 -5 0 -12.4 Z" fill="#4c7a37"/><path d="M0 -8.7 L0 9.9" stroke="#a5c46c" stroke-width="2" stroke-linecap="round"/></g><g transform="translate(482.8 357.3) rotate(340.1)"><path d="M0 -12.2 C 9.8 -4.9 9.8 7.3 0 12.2 C -9.8 7.3 -9.8 -4.9 0 -12.2 Z" fill="#4c7a37"/><path d="M0 -8.5 L0 9.8" stroke="#a5c46c" stroke-width="2" stroke-linecap="round"/></g><circle cx="842" cy="634" r="24.3" fill="#f0d050"/><circle cx="842" cy="634" r="18.9" fill="#fbeaa0"/><path d="M824 634 L860 634" fill="none" stroke="#f0d050" stroke-width="2.7" stroke-linecap="round" stroke-linejoin="round" transform="rotate(0 842 634)"/><path d="M824 634 L860 634" fill="none" stroke="#f0d050" stroke-width="2.7" stroke-linecap="round" stroke-linejoin="round" transform="rotate(60 842 634)"/><path d="M824 634 L860 634" fill="none" stroke="#f0d050" stroke-width="2.7" stroke-linecap="round" stroke-linejoin="round" transform="rotate(120 842 634)"/></svg>
