<svg xmlns="http://www.w3.org/2000/svg" viewBox="0 0 1024 768" width="1024" height="768" role="img"><rect width="1024" height="768" fill="#c9d8b6"/><rect x="-20" y="73" width="1064" height="34" rx="0" fill="#faf4e8" transform="rotate(0 512 90)" opacity="0.35"/><rect x="-20" y="673" width="1064" height="34" rx="0" fill="#faf4e8" transform="rotate(0 512 690)" opacity="0.35"/><ellipse cx="522" cy="398" rx="440" ry="300" fill="#3d2b20" transform="rotate(0 522 398)" opacity="0.10"/><rect x="72" y="70" width="880" height="628" rx="38" fill="#7d8b94" transform="rotate(0 512 384)"/><rect x="89" y="87" width="846" height="594" rx="28" fill="#8f9ca4" transform="rotate(0 512 384)"/><rect x="112" y="110" width="800" height="548" rx="22" fill="#dfe5e7" transform="rotate(0 512 384)"/><rect x="112" y="110" width="800" height="548" rx="22" fill="#f3efe6" transform="rotate(0 512 384)" opacity="0.55"/><rect x="457.2" y="222.4" width="63.5" height="63.5" rx="17.9" fill="#e8c878" transform="rotate(60.8 489 254.2)"/><circle cx="479.1" cy="244.3" r="6" fill="#f6e3a8"/><rect x="601.5" y="604" width="57.2" height="57.2" rx="16.1" fill="#e8c878" transform="rotate(41.5 630.1 632.6)"/><circle cx="621.1" cy="623.7" r="5.4" fill="#f6e3a8"/><rect x="460.1" y="580.4" width="65.1" height="65.1" rx="18.3" fill="#e8c878" transform="rotate(3.7 492.7 613)"/><circle cx="482.5" cy="602.8" r="6.1" fill="#f6e3a8"/><rect x="573.8" y="201.6" width="60.5" height="60.5" rx="17" fill="#e8c878" transform="rotate(53.6 604.1 231.9)"/><circle cx="594.6" cy="222.4" r="5.7" fill="#f6e3a8"/><rect x="784.6" y="593.5" width="63.6" height="63.6" rx="17.9" fill="#e8c878" transform="rotate(50.3 816.5 625.3)"/><circle cx="806.5" cy="615.3" r="6" fill="#f6e3a8"/><rect x="183.9" y="204.4" width="60.8" height="60.8" rx="17.1" fill="#e8c878" transform="rotate(53.1 214.3 234.8)"/><circle cx="204.8" cy="225.3" r="5.7" fill="#f6e3a8"/><rect x="665.8" y="310.6" width="59.9" height="59.9" rx="16.8" fill="#e8c878" transform="rotate(42.4 695.8 340.6)"/><circle cx="686.4" cy="331.2" r="5.6" fill="#f6e3a8"/><rect x="273.4" y="216.8" width="64.3" height="64.3" rx="18.1" fill="#e8c878" transform="rotate(9.7 305.6 248.9)"/><circle cx="295.5" cy="238.9" r="6" fill="#f6e3a8"/><rect x="477.2" y="374.1" width="55.7" height="55.7" rx="15.7" fill="#e8c878" transform="rotate(13.1 505.1 401.9)"/><circle cx="496.4" cy="393.2" r="5.2" fill="#f6e3a8"/><rect x="601.8" y="430.7" width="55.5" height="55.5" rx="15.6" fill="#e8c878" transform="rotate(3.2 629.6 458.5)"/><circle cx="620.9" cy="449.8" r="5.2" fill="#f6e3a8"/><rect x="230.8" y="479.5" width="60.7" height="60.7" rx="17.1" fill="#e8c878" transform="rotate(62.7 261.2 509.9)"/><circle cx="251.7" cy="500.4" r="5.7" fill="#f6e3a8"/><rect x="377.1" y="524.1" width="60.4" height="60.4" rx="17" fill="#e8c878" transform="rotate(80.2 407.3 554.3)"/><circle cx="397.9" cy="544.9" r="5.7" fill="#f6e3a8"/><rect x="118" y="368.2" width="59" height="59" rx="16.6" fill="#e8c878" transform="rotate(54.3 147.5 397.7)"/><circle cx="138.3" cy="388.5" r="5.5" fill="#f6e3a8"/><rect x="350.7" y="230.1" width="60.6" height="60.6" rx="17" fill="#e8c878" transform="rotate(85.8 381 260.4)"/><circle cx="371.5" cy="250.9" r="5.7" fill="#f6e3a8"/><rect x="209.5" y="117.3" width="65.8" height="65.8" rx="18.5" fill="#e8c878" transform="rotate(47.8 242.4 150.2)"/><circle cx="232.1" cy="139.9" r="6.2" fill="#f6e3a8"/><rect x="348.7" y="364.8" width="55.4" height="55.4" rx="15.6" fill="#e8c878" transform="rotate(40.9 376.4 392.5)"/><circle cx="367.7" cy="383.9" r="5.2" fill="#f6e3a8"/><rect x="153.8" y="257" width="122.9" height="45.6" rx="22.8" fill="#8a5a3c" transform="rotate(145.7 215.3 279.8)"/><rect x="166.1" y="267.5" width="77.2" height="10.5" rx="5.3" fill="#b98560" transform="rotate(145.7 204.7 272.8)" opacity="0.7"/><rect x="595.8" y="592.3" width="112.1" height="41.6" rx="20.8" fill="#8a5a3c" transform="rotate(138.2 651.9 613.1)"/><rect x="607" y="601.9" width="70.5" height="9.6" rx="4.8" fill="#b98560" transform="rotate(138.2 642.3 606.7)" opacity="0.7"/><rect x="170.7" y="573.7" width="111.2" height="41.3" rx="20.6" fill="#8a5a3c" transform="rotate(24.4 226.3 594.4)"/><rect x="181.8" y="583.3" width="69.9" height="9.5" rx="4.8" fill="#b98560" transform="rotate(24.4 216.7 588)" opacity="0.7"/><rect x="341.6" y="591.6" width="103.2" height="38.3" rx="19.2" fill="#8a5a3c" transform="rotate(148.8 393.2 610.7)"/><rect x="352" y="600.4" width="64.9" height="8.8" rx="4.4" fill="#b98560" transform="rotate(148.8 384.4 604.8)" opacity="0.7"/><rect x="780.8" y="203.5" width="101.8" height="37.8" rx="18.9" fill="#8a5a3c" transform="rotate(40.3 831.7 222.4)"/><rect x="790.9" y="212.2" width="64" height="8.7" rx="4.4" fill="#b98560" transform="rotate(40.3 823 216.6)" opacity="0.7"/><rect x="541.5" y="291.2" width="122.2" height="45.4" rx="22.7" fill="#8a5a3c" transform="rotate(40 602.6 313.9)"/><rect x="553.7" y="301.7" width="76.8" height="10.5" rx="5.2" fill="#b98560" transform="rotate(40 592.1 306.9)" opacity="0.7"/><g transform="rotate(66.4 584.3 381.5)"><path d="M538.2 381.5 Q584.3 342.4 630.5 381.5" fill="none" stroke="#e98a3a" stroke-width="23.1" stroke-linecap="round" stroke-linejoin="round"/></g><g transform="rotate(25.3 646.8 415.4)"><path d="M602.7 415.4 Q646.8 378 690.9 415.4" fill="none" stroke="#6f9a4b" stroke-width="22.1" stroke-linecap="round" stroke-linejoin="round"/></g><g transform="rotate(16 828.6 398.3)"><path d="M783.6 398.3 Q828.6 360.3 873.6 398.3" fill="none" stroke="#f2b73a" stroke-width="22.5" stroke-linecap="round" stroke-linejoin="round"/></g><g transform="rotate(57.3 311 341.7)"><path d="M266.6 341.7 Q311 304.1 355.4 341.7" fill="none" stroke="#6f9a4b" stroke-width="22.2" stroke-linecap="round" stroke-linejoin="round"/></g><g transform="rotate(157.8 465.8 374.2)"><path d="M419 374.2 Q465.8 334.6 512.7 374.2" fill="none" stroke="#f2b73a" stroke-width="23.4" stroke-linecap="round" stroke-linejoin="round"/></g><g transform="rotate(41.3 266.1 520.3)"><path d="M224.7 520.3 Q266.1 485.3 307.4 520.3" fill="none" stroke="#f2b73a" stroke-width="20.7" stroke-linecap="round" stroke-linejoin="round"/></g><g transform="rotate(23 270.3 198.6)"><path d="M221.9 198.6 Q270.3 157.6 318.8 198.6" fill="none" stroke="#f2b73a" stroke-width="24.2" stroke-linecap="round" stroke-linejoin="round"/></g><g transform="rotate(85.4 578.8 253.4)"><path d="M531.5 253.4 Q578.8 213.3 626.1 253.4" fill="none" stroke="#f2b73a" stroke-width="23.7" stroke-linecap="round" stroke-linejoin="round"/></g><g transform="rotate(139.5 155.9 342.7)"><path d="M111.7 342.7 Q155.9 305.4 200.1 342.7" fill="none" stroke="#d4452b" stroke-width="22.1" stroke-linecap="round" stroke-linejoin="round"/></g><g transform="rotate(22.4 394 189.9)"><path d="M349.5 189.9 Q394 152.2 438.5 189.9" fill="none" stroke="#e98a3a" stroke-width="22.2" stroke-linecap="round" stroke-linejoin="round"/></g><g transform="rotate(174.5 600.2 456.8)"><path d="M565.9 456.8 A34.3 34.3 0 0 1 634.5 456.8" fill="none" stroke="#a4508b" stroke-width="14" stroke-linecap="round" stroke-linejoin="round"/><path d="M581.5 456.8 A18.7 18.7 0 0 1 618.9 456.8" fill="none" stroke="#c883b3" stroke-width="9.3" stroke-linecap="round" stroke-linejoin="round"/></g><g transform="rotate(99.4 408.7 611.2)"><path d="M376.2 611.2 A32.5 32.5 0 0 1 441.1 611.2" fill="none" stroke="#a4508b" stroke-width="13.3" stroke-linecap="round" stroke-linejoin="round"/><path d="M391 611.2 A17.7 17.7 0 0 1 426.4 611.2" fill="none" stroke="#c883b3" stroke-width="8.9" stroke-linecap="round" stroke-linejoin="round"/></g><g transform="rotate(110.8 651.3 176.9)"><path d="M617.4 176.9 A33.8 33.8 0 0 1 685.1 176.9" fill="none" stroke="#a4508b" stroke-width="13.8" stroke-linecap="round" stroke-linejoin="round"/><path d="M632.8 176.9 A18.5 18.5 0 0 1 669.7 176.9" fill="none" stroke="#c883b3" stroke-width="9.2" stroke-linecap="round" stroke-linejoin="round"/></g><g transform="rotate(233.9 725.6 499.1)"><path d="M694.5 499.1 A31.1 31.1 0 0 1 756.7 499.1" fill="none" stroke="#a4508b" stroke-width="12.7" stroke-linecap="round" stroke-linejoin="round"/><path d="M708.6 499.1 A16.9 16.9 0 0 1 742.5 499.1" fill="none" stroke="#c883b3" stroke-width="8.5" stroke-linecap="round" stroke-linejoin="round"/></g><g transform="rotate(174.4 769.9 362.3)"><path d="M737.4 362.3 A32.5 32.5 0 0 1 802.4 362.3" fill="none" stroke="#a4508b" stroke-width="13.3" stroke-linecap="round" stroke-linejoin="round"/><path d="M752.2 362.3 A17.7 17.7 0 0 1 787.6 362.3" fill="none" stroke="#c883b3" stroke-width="8.9" stroke-linecap="round" stroke-linejoin="round"/></g><g transform="rotate(346 506.5 285.7)"><path d="M474.7 285.7 A31.8 31.8 0 0 1 538.2 285.7" fill="none" stroke="#a4508b" stroke-width="13" stroke-linecap="round" stroke-linejoin="round"/><path d="M489.1 285.7 A17.3 17.3 0 0 1 523.8 285.7" fill="none" stroke="#c883b3" stroke-width="8.7" stroke-linecap="round" stroke-linejoin="round"/></g><g transform="rotate(42.1 175.2 244.7)"><path d="M144.7 244.7 A30.5 30.5 0 0 1 205.8 244.7" fill="none" stroke="#a4508b" stroke-width="12.5" stroke-linecap="round" stroke-linejoin="round"/><path d="M158.6 244.7 A16.6 16.6 0 0 1 191.9 244.7" fill="none" stroke="#c883b3" stroke-width="8.3" stroke-linecap="round" stroke-linejoin="round"/></g><g transform="rotate(142.5 803.6 197.6)"><path d="M770 197.6 A33.6 33.6 0 0 1 837.2 197.6" fill="none" stroke="#a4508b" stroke-width="13.7" stroke-linecap="round" stroke-linejoin="round"/><path d="M785.3 197.6 A18.3 18.3 0 0 1 821.9 197.6" fill="none" stroke="#c883b3" stroke-width="9.2" stroke-linecap="round" stroke-linejoin="round"/></g><rect x="778.3" y="310.6" width="13.9" height="32.9" rx="5.1" fill="#a5c46c" transform="rotate(-8.4 785.2 327.1)"/><circle cx="770" cy="306.8" r="17.7" fill="#4c7a37"/><circle cx="800.4" cy="306.8" r="17.7" fill="#6f9a4b"/><circle cx="785.2" cy="294.2" r="19" fill="#6f9a4b"/><circle cx="780.2" cy="291.6" r="6.3" fill="#a5c46c"/><rect x="664.4" y="592.6" width="16.1" height="38.1" rx="5.9" fill="#a5c46c" transform="rotate(13.4 672.5 611.7)"/><circle cx="654.9" cy="588.2" r="20.5" fill="#4c7a37"/><circle cx="690.1" cy="588.2" r="20.5" fill="#6f9a4b"/><circle cx="672.5" cy="573.5" r="22" fill="#6f9a4b"/><circle cx="666.6" cy="570.6" r="7.3" fill="#a5c46c"/><rect x="285" y="473.3" width="16.3" height="38.6" rx="5.9" fill="#a5c46c" transform="rotate(-10.1 293.1 492.6)"/><circle cx="275.3" cy="468.9" r="20.8" fill="#4c7a37"/><circle cx="310.9" cy="468.9" r="20.8" fill="#6f9a4b"/><circle cx="293.1" cy="454.1" r="22.2" fill="#6f9a4b"/><circle cx="287.2" cy="451.1" r="7.4" fill="#a5c46c"/><rect x="224.2" y="280.9" width="16.6" height="39.2" rx="6" fill="#a5c46c" transform="rotate(-5.6 232.4 300.5)"/><circle cx="214.4" cy="276.3" r="21.1" fill="#4c7a37"/><circle cx="250.5" cy="276.3" r="21.1" fill="#6f9a4b"/><circle cx="232.4" cy="261.3" r="22.6" fill="#6f9a4b"/><circle cx="226.4" cy="258.2" r="7.5" fill="#a5c46c"/><rect x="407.7" y="275.8" width="15.7" height="37" rx="5.7" fill="#a5c46c" transform="rotate(-6.1 415.5 294.3)"/><circle cx="398.4" cy="271.6" r="19.9" fill="#4c7a37"/><circle cx="432.6" cy="271.6" r="19.9" fill="#6f9a4b"/><circle cx="415.5" cy="257.3" r="21.4" fill="#6f9a4b"/><circle cx="409.8" cy="254.5" r="7.1" fill="#a5c46c"/></svg>
